<?xml version="1.0" encoding="us-ascii" standalone="no"?><svg xmlns="http://www.w3.org/2000/svg" xmlns:xlink="http://www.w3.org/1999/xlink" contentStyleType="text/css" height="431px" preserveAspectRatio="none" style="width:418px;height:431px;background:#FFFFFF;" version="1.1" viewBox="0 0 418 431" width="418px" zoomAndPan="magnify"><defs><filter height="1" id="bg3etdq0ltdcz0" width="1" x="0" y="0"><feFlood flood-color="#FFC0CB" result="flood"/><feComposite in="SourceGraphic" in2="flood" operator="over"/></filter><filter height="1" id="bg3etdq0ltdcz1" width="1" x="0" y="0"><feFlood flood-color="#00FFFF" result="flood"/><feComposite in="SourceGraphic" in2="flood" operator="over"/></filter></defs><g><text fill="#000000" font-family="sans-serif" font-size="14" font-weight="bold" lengthAdjust="spacing" textLength="390" x="10" y="25.1074">Keyple - keyple-card-calypso-java-lib - 3.0.+ (2023-09-19)</text><rect fill="#DDDDDD" height="84.4844" id="_legend" rx="7.5" ry="7.5" style="stroke:#000000;stroke-width:1.0;" width="196" x="107" y="51.6211"/><text fill="#000000" font-family="sans-serif" font-size="14" lengthAdjust="spacing" text-decoration="underline" textLength="88" x="112" y="71.7285">Colors legend</text><text fill="#000000" font-family="sans-serif" font-size="14" lengthAdjust="spacing" textLength="4" x="204" y="71.7285">:</text><ellipse cx="117.5" cy="86.3633" fill="#000000" rx="2.5" ry="2.5" style="stroke:#000000;stroke-width:0.0;"/><text fill="#000000" font-family="sans-serif" font-size="14" lengthAdjust="spacing" text-decoration="underline" textLength="148" x="124" y="90.3496">External API references</text><text fill="#000000" font-family="sans-serif" font-size="14" lengthAdjust="spacing" textLength="4" x="276" y="90.3496">:</text><rect fill="#000000" height="3.5" style="stroke:#000000;stroke-width:0.0;" width="3.5" x="121" y="102.4844"/><text fill="#000000" filter="url(#bg3etdq0ltdcz0)" font-family="sans-serif" font-size="14" font-weight="bold" lengthAdjust="spacing" textLength="169" x="128" y="108.9707">keypop-calypso-java-api</text><rect fill="#000000" height="3.5" style="stroke:#000000;stroke-width:0.0;" width="3.5" x="121" y="121.1055"/><text fill="#000000" filter="url(#bg3etdq0ltdcz1)" font-family="sans-serif" font-size="14" font-weight="bold" lengthAdjust="spacing" textLength="170" x="128" y="127.5918">keyple-common-java-api</text><!--cluster calypso--><g id="cluster_calypso"><path d="M16,155.1191 L238,155.1191 A3.75,3.75 0 0 1 240.5,157.6191 L247.5,179.7402 L407,179.7402 A2.5,2.5 0 0 1 409.5,182.2402 L409.5,421.6191 A2.5,2.5 0 0 1 407,424.1191 L16,424.1191 A2.5,2.5 0 0 1 13.5,421.6191 L13.5,157.6191 A2.5,2.5 0 0 1 16,155.1191 " fill="#F8F9F9" style="stroke:#000000;stroke-width:1.5;"/><line style="stroke:#000000;stroke-width:1.5;" x1="13.5" x2="247.5" y1="179.7402" y2="179.7402"/><text fill="#000000" font-family="sans-serif" font-size="14" font-weight="bold" lengthAdjust="spacing" textLength="221" x="17.5" y="172.2266">org.eclipse.keyple.card.calypso</text></g><!--class CalypsoExtensionService--><g id="elem_CalypsoExtensionService"><rect codeLine="61" fill="#E9F7EF" height="216.2109" id="CalypsoExtensionService" rx="2.5" ry="2.5" style="stroke:#27AE60;stroke-width:2.0;" width="364" x="29.5" y="192.1191"/><ellipse cx="105.25" cy="215.7402" fill="#ADD1B2" rx="11" ry="11" style="stroke:#181818;stroke-width:1.0;"/><path d="M108.0156,211.6152 Q108.1719,211.3965 108.3594,211.2871 Q108.5469,211.1777 108.7656,211.1777 Q109.1406,211.1777 109.375,211.4434 Q109.6094,211.6934 109.6094,212.3027 L109.6094,213.7559 Q109.6094,214.3652 109.375,214.6309 Q109.1406,214.8965 108.7656,214.8965 Q108.4219,214.8965 108.2188,214.6934 Q108.0156,214.5059 107.9063,213.9902 Q107.8594,213.6309 107.6719,213.4434 Q107.3438,213.0684 106.7344,212.8496 Q106.125,212.6309 105.5,212.6309 Q104.7344,212.6309 104.0938,212.959 Q103.4688,213.2871 102.9688,214.0371 Q102.4844,214.7871 102.4844,215.8184 L102.4844,216.9121 Q102.4844,218.1465 103.375,218.9746 Q104.2656,219.7871 105.8594,219.7871 Q106.7969,219.7871 107.4531,219.5371 Q107.8438,219.3809 108.2656,218.9434 Q108.5313,218.6777 108.6719,218.5996 Q108.8281,218.5215 109.0313,218.5215 Q109.3594,218.5215 109.6094,218.7871 Q109.875,219.0371 109.875,219.3809 Q109.875,219.7246 109.5313,220.1309 Q109.0313,220.709 108.2344,221.0371 Q107.1563,221.4902 105.8594,221.4902 Q104.3438,221.4902 103.1406,220.8652 Q102.1563,220.3652 101.4688,219.3027 Q100.7813,218.2246 100.7813,216.9434 L100.7813,215.7871 Q100.7813,214.459 101.3906,213.3184 Q102.0156,212.1621 103.1094,211.5527 Q104.2031,210.9277 105.4375,210.9277 Q106.1719,210.9277 106.8125,211.0996 Q107.4688,211.2559 108.0156,211.6152 Z " fill="#000000"/><ellipse cx="130.75" cy="215.2402" fill="#84BE84" rx="3" ry="3" style="stroke:#038048;stroke-width:1.0;"/><text fill="#000000" font-family="sans-serif" font-size="14" lengthAdjust="spacing" textLength="16" x="149.75" y="212.2266">&lt;&lt;</text><text fill="#000000" filter="url(#bg3etdq0ltdcz1)" font-family="sans-serif" font-size="14" lengthAdjust="spacing" textLength="135" x="165.75" y="212.2266">KeypleCardExtension</text><text fill="#000000" font-family="sans-serif" font-size="14" lengthAdjust="spacing" textLength="16" x="300.75" y="212.2266">&gt;&gt;</text><text fill="#000000" font-family="sans-serif" font-size="14" font-weight="bold" lengthAdjust="spacing" textLength="30" x="136.75" y="230.8477">final</text><text fill="#000000" font-family="sans-serif" font-size="14" lengthAdjust="spacing" textLength="159" x="170.75" y="230.8477">CalypsoExtensionService</text><line style="stroke:#27AE60;stroke-width:2.0;" x1="30.5" x2="392.5" y1="239.3613" y2="239.3613"/><line style="stroke:#27AE60;stroke-width:1.0;" x1="30.5" x2="392.5" y1="247.3613" y2="247.3613"/><ellipse cx="40.5" cy="262.1719" fill="#84BE84" rx="3" ry="3" style="stroke:#038048;stroke-width:1.0;"/><text fill="#000000" font-family="sans-serif" font-size="14" lengthAdjust="spacing" text-decoration="underline" textLength="250" x="49.5" y="266.4688">CalypsoExtensionService getInstance ()</text><text fill="#000000" font-family="sans-serif" font-size="14" lengthAdjust="spacing" textLength="4" x="49.5" y="285.0898">&#160;</text><ellipse cx="40.5" cy="299.4141" fill="#84BE84" rx="3" ry="3" style="stroke:#038048;stroke-width:1.0;"/><text fill="#0000FF" filter="url(#bg3etdq0ltdcz0)" font-family="sans-serif" font-size="14" lengthAdjust="spacing" textLength="150" x="49.5" y="303.7109">CalypsoCardApiFactory</text><text fill="#0000FF" font-family="sans-serif" font-size="14" lengthAdjust="spacing" textLength="184" x="203.5" y="303.7109">getCalypsoCardApiFactory ()</text><text fill="#000000" font-family="sans-serif" font-size="14" lengthAdjust="spacing" textLength="4" x="49.5" y="322.332">&#160;</text><ellipse cx="40.5" cy="359.2773" fill="#84BE84" rx="3" ry="3" style="stroke:#038048;stroke-width:1.0;"/><text fill="#000000" font-family="sans-serif" font-size="14" lengthAdjust="spacing" textLength="199" x="49.5" y="363.5742">String getCommonApiVersion ()</text><ellipse cx="40.5" cy="377.8984" fill="#84BE84" rx="3" ry="3" style="stroke:#038048;stroke-width:1.0;"/><text fill="#000000" font-family="sans-serif" font-size="14" lengthAdjust="spacing" textLength="190" x="49.5" y="382.1953">String getReaderApiVersion ()</text><ellipse cx="40.5" cy="396.5195" fill="#84BE84" rx="3" ry="3" style="stroke:#038048;stroke-width:1.0;"/><text fill="#000000" font-family="sans-serif" font-size="14" lengthAdjust="spacing" textLength="174" x="49.5" y="400.8164">String getCardApiVersion ()</text><line style="stroke:#27AE60;stroke-width:1.0;" x1="30.5" x2="136" y1="339.1563" y2="339.1563"/><text fill="#000000" font-family="sans-serif" font-size="14" font-weight="bold" lengthAdjust="spacing" textLength="151" x="136" y="344.4531">KeypleCardExtension</text><line style="stroke:#27AE60;stroke-width:1.0;" x1="287" x2="392.5" y1="339.1563" y2="339.1563"/></g><!--SRC=[ZLLjR-8u4FwUNp7N_T3TL07Aor8GYvGNPw_QNdTLs9CgdOJSn0KVneviKmvL_U_dE4aRk6ovV43Ep3FFCpDCnffgHXmmppUopnW13zRsu2LOfkQ7xJCblB_n4_OOVJ3kNglJke2FtKwtvtL6tkNeaqDu2jeIEUVmvGlCVqT_87Cmhw7OChAL2gXIMw8W9J26bTQP6hVRAxrXYM129Y8bgfM8JVjHjZL-O0HllTJaK4GtcCnHqINtCePrs_aj9O-K4mWNN-_G_IN4L_4e7XsPkn1turxSFpBt00tG41sZ-n0Deo2AZim32FqmZhf7viyGH64l7DRCDzUttw3N7rr5GStwSuQWE_JHvqxUAy-3cTupqnUzmXfImSyrx8HSmuxg5N2oWoSY5HKSn2EOMhdURfW9SzIQyWnBl06bYIH2xpFY1qAcH8PvH-63Fuh2A6u4NXy0Wxu_H8D6O7Z864MNGRSHY0w0A1ZrZBIj3zr6URwrg91XfGhyV4MJDITAGPtMbrBiwYx3T4yO4xl_iE1alPHYozDIEKOn2b6pM0c9-dxOYGpb7KbFy4qcagJJgQ6DK8J2TsXVaMZODtFWhAWPzChurYQZ-cChpTTrKZYpCAlTHs4yV5Vx3No5-dq_gkHVxGSPFB3jQVqSPEi9ua4SlAjUGSjPBxLBwu7oLqa8Foczp55MUnGFKVokzYks_APAySfyhBx_F-9xg-sREKAdj2sq6_RGe2wzFrGkTcBu_NQERkTsApAoj2jJP7RpBXQMKK5XNonWREskyQ1_31773FmVro39es7b2L5l61Sc3wQ8SKRvUkgw-V8MsU7UnXbrtKaxXqqFWv8zvcLGll75PYDuGqoUR96RusJ6WfS4peHSjaZ2QAP8go1evLT6gvG-0woWFCEpbRr8yXx2sMHIKo-kdT14vgNoVDULijFfNznrpTx4p2GS5bIle1cHJpGXLkONljeW50daZzb5rV7YMMciQVBoIu8bqTVSW4pBuUCdvoroOg-jiHtoMlzBdhmQFwCnJhIG-xASdApHVy1iDgRhDlJ4TA2U-KnBofUMqlvfXktFyg8mR0smEuBDv9w4bPaTWLwSbtoAVQL4Gat715VbLD_uzzz_5aDjtsVp-vlYvg_cf1g13zNT_FpYd5TEbT7AqSqT_m80]--></g></svg>