<?xml version="1.0" encoding="us-ascii" standalone="no"?><svg xmlns="http://www.w3.org/2000/svg" xmlns:xlink="http://www.w3.org/1999/xlink" contentStyleType="text/css" height="431px" preserveAspectRatio="none" style="width:418px;height:431px;background:#FFFFFF;" version="1.1" viewBox="0 0 418 431" width="418px" zoomAndPan="magnify"><defs><filter height="1" id="b1m5p58hbgvide0" width="1" x="0" y="0"><feFlood flood-color="#FFC0CB" result="flood"/><feComposite in="SourceGraphic" in2="flood" operator="over"/></filter><filter height="1" id="b1m5p58hbgvide1" width="1" x="0" y="0"><feFlood flood-color="#00FFFF" result="flood"/><feComposite in="SourceGraphic" in2="flood" operator="over"/></filter></defs><g><text fill="#000000" font-family="sans-serif" font-size="14" font-weight="bold" lengthAdjust="spacing" textLength="390" x="10" y="25.1074">Keyple - keyple-card-calypso-java-lib - 3.0.+ (2023-09-19)</text><rect fill="#DDDDDD" height="84.4844" id="_legend" rx="7.5" ry="7.5" style="stroke:#000000;stroke-width:1.0;" width="196" x="107" y="51.6211"/><text fill="#000000" font-family="sans-serif" font-size="14" lengthAdjust="spacing" text-decoration="underline" textLength="88" x="112" y="71.7285">Colors legend</text><text fill="#000000" font-family="sans-serif" font-size="14" lengthAdjust="spacing" textLength="4" x="204" y="71.7285">:</text><ellipse cx="117.5" cy="86.3633" fill="#000000" rx="2.5" ry="2.5" style="stroke:#000000;stroke-width:0.0;"/><text fill="#000000" font-family="sans-serif" font-size="14" lengthAdjust="spacing" text-decoration="underline" textLength="148" x="124" y="90.3496">External API references</text><text fill="#000000" font-family="sans-serif" font-size="14" lengthAdjust="spacing" textLength="4" x="276" y="90.3496">:</text><rect fill="#000000" height="3.5" style="stroke:#000000;stroke-width:0.0;" width="3.5" x="121" y="102.4844"/><text fill="#000000" filter="url(#b1m5p58hbgvide0)" font-family="sans-serif" font-size="14" font-weight="bold" lengthAdjust="spacing" textLength="169" x="128" y="108.9707">keypop-calypso-java-api</text><rect fill="#000000" height="3.5" style="stroke:#000000;stroke-width:0.0;" width="3.5" x="121" y="121.1055"/><text fill="#000000" filter="url(#b1m5p58hbgvide1)" font-family="sans-serif" font-size="14" font-weight="bold" lengthAdjust="spacing" textLength="170" x="128" y="127.5918">keyple-common-java-api</text><!--cluster calypso--><g id="cluster_calypso"><path d="M16,155.1191 L238,155.1191 A3.75,3.75 0 0 1 240.5,157.6191 L247.5,179.7402 L407,179.7402 A2.5,2.5 0 0 1 409.5,182.2402 L409.5,421.6191 A2.5,2.5 0 0 1 407,424.1191 L16,424.1191 A2.5,2.5 0 0 1 13.5,421.6191 L13.5,157.6191 A2.5,2.5 0 0 1 16,155.1191 " fill="#F8F9F9" style="stroke:#000000;stroke-width:1.5;"/><line style="stroke:#000000;stroke-width:1.5;" x1="13.5" x2="247.5" y1="179.7402" y2="179.7402"/><text fill="#000000" font-family="sans-serif" font-size="14" font-weight="bold" lengthAdjust="spacing" textLength="221" x="17.5" y="172.2266">org.eclipse.keyple.card.calypso</text></g><!--class CalypsoCardExtensionService--><g id="elem_CalypsoCardExtensionService"><rect codeLine="61" fill="#E9F7EF" height="216.2109" id="CalypsoCardExtensionService" rx="2.5" ry="2.5" style="stroke:#27AE60;stroke-width:2.0;" width="364" x="29.5" y="192.1191"/><ellipse cx="89.75" cy="215.7402" fill="#ADD1B2" rx="11" ry="11" style="stroke:#181818;stroke-width:1.0;"/><path d="M92.5156,211.6152 Q92.6719,211.3965 92.8594,211.2871 Q93.0469,211.1777 93.2656,211.1777 Q93.6406,211.1777 93.875,211.4434 Q94.1094,211.6934 94.1094,212.3027 L94.1094,213.7559 Q94.1094,214.3652 93.875,214.6309 Q93.6406,214.8965 93.2656,214.8965 Q92.9219,214.8965 92.7188,214.6934 Q92.5156,214.5059 92.4063,213.9902 Q92.3594,213.6309 92.1719,213.4434 Q91.8438,213.0684 91.2344,212.8496 Q90.625,212.6309 90,212.6309 Q89.2344,212.6309 88.5938,212.959 Q87.9688,213.2871 87.4688,214.0371 Q86.9844,214.7871 86.9844,215.8184 L86.9844,216.9121 Q86.9844,218.1465 87.875,218.9746 Q88.7656,219.7871 90.3594,219.7871 Q91.2969,219.7871 91.9531,219.5371 Q92.3438,219.3809 92.7656,218.9434 Q93.0313,218.6777 93.1719,218.5996 Q93.3281,218.5215 93.5313,218.5215 Q93.8594,218.5215 94.1094,218.7871 Q94.375,219.0371 94.375,219.3809 Q94.375,219.7246 94.0313,220.1309 Q93.5313,220.709 92.7344,221.0371 Q91.6563,221.4902 90.3594,221.4902 Q88.8438,221.4902 87.6406,220.8652 Q86.6563,220.3652 85.9688,219.3027 Q85.2813,218.2246 85.2813,216.9434 L85.2813,215.7871 Q85.2813,214.459 85.8906,213.3184 Q86.5156,212.1621 87.6094,211.5527 Q88.7031,210.9277 89.9375,210.9277 Q90.6719,210.9277 91.3125,211.0996 Q91.9688,211.2559 92.5156,211.6152 Z " fill="#000000"/><ellipse cx="115.25" cy="215.2402" fill="#84BE84" rx="3" ry="3" style="stroke:#038048;stroke-width:1.0;"/><text fill="#000000" font-family="sans-serif" font-size="14" lengthAdjust="spacing" textLength="16" x="149.75" y="212.2266">&lt;&lt;</text><text fill="#000000" filter="url(#b1m5p58hbgvide1)" font-family="sans-serif" font-size="14" lengthAdjust="spacing" textLength="135" x="165.75" y="212.2266">KeypleCardExtension</text><text fill="#000000" font-family="sans-serif" font-size="14" lengthAdjust="spacing" textLength="16" x="300.75" y="212.2266">&gt;&gt;</text><text fill="#0000FF" font-family="sans-serif" font-size="14" font-weight="bold" lengthAdjust="spacing" textLength="30" x="121.25" y="230.8477">final</text><text fill="#0000FF" font-family="sans-serif" font-size="14" lengthAdjust="spacing" textLength="190" x="155.25" y="230.8477">CalypsoCardExtensionService</text><line style="stroke:#27AE60;stroke-width:2.0;" x1="30.5" x2="392.5" y1="239.3613" y2="239.3613"/><line style="stroke:#27AE60;stroke-width:1.0;" x1="30.5" x2="392.5" y1="247.3613" y2="247.3613"/><ellipse cx="40.5" cy="262.1719" fill="#84BE84" rx="3" ry="3" style="stroke:#038048;stroke-width:1.0;"/><text fill="#000000" font-family="sans-serif" font-size="14" lengthAdjust="spacing" text-decoration="underline" textLength="281" x="49.5" y="266.4688">CalypsoCardExtensionService getInstance ()</text><text fill="#000000" font-family="sans-serif" font-size="14" lengthAdjust="spacing" textLength="4" x="49.5" y="285.0898">&#160;</text><ellipse cx="40.5" cy="299.4141" fill="#84BE84" rx="3" ry="3" style="stroke:#038048;stroke-width:1.0;"/><text fill="#0000FF" filter="url(#b1m5p58hbgvide0)" font-family="sans-serif" font-size="14" lengthAdjust="spacing" textLength="150" x="49.5" y="303.7109">CalypsoCardApiFactory</text><text fill="#0000FF" font-family="sans-serif" font-size="14" lengthAdjust="spacing" textLength="184" x="203.5" y="303.7109">getCalypsoCardApiFactory ()</text><text fill="#000000" font-family="sans-serif" font-size="14" lengthAdjust="spacing" textLength="4" x="49.5" y="322.332">&#160;</text><ellipse cx="40.5" cy="359.2773" fill="#84BE84" rx="3" ry="3" style="stroke:#038048;stroke-width:1.0;"/><text fill="#000000" font-family="sans-serif" font-size="14" lengthAdjust="spacing" textLength="199" x="49.5" y="363.5742">String getCommonApiVersion ()</text><ellipse cx="40.5" cy="377.8984" fill="#84BE84" rx="3" ry="3" style="stroke:#038048;stroke-width:1.0;"/><text fill="#000000" font-family="sans-serif" font-size="14" lengthAdjust="spacing" textLength="190" x="49.5" y="382.1953">String getReaderApiVersion ()</text><ellipse cx="40.5" cy="396.5195" fill="#84BE84" rx="3" ry="3" style="stroke:#038048;stroke-width:1.0;"/><text fill="#000000" font-family="sans-serif" font-size="14" lengthAdjust="spacing" textLength="174" x="49.5" y="400.8164">String getCardApiVersion ()</text><line style="stroke:#27AE60;stroke-width:1.0;" x1="30.5" x2="136" y1="339.1563" y2="339.1563"/><text fill="#000000" font-family="sans-serif" font-size="14" font-weight="bold" lengthAdjust="spacing" textLength="151" x="136" y="344.4531">KeypleCardExtension</text><line style="stroke:#27AE60;stroke-width:1.0;" x1="287" x2="392.5" y1="339.1563" y2="339.1563"/></g><!--SRC=[ZLRlRzey4FwUl-BMVUYMAa3vCGfYI25njcfzkwcmLwhqIiXDNF0mTcIRCbJrVtyT9saJXc3vW9oxvvxdVBwSqLGpue1vlf5ToWXuiB8BByOoCJzibohX_S9Fs6FqmRWxZLRZ0ZwqM-sErnfubuEF3k49Q4ladCFdpp3xYlv1Pc5U0x5XP2CLKAKsH452O0XBhLCrR3QNUirYmOICHK9K8nRhvgDiQlp02DvuYSaXZpvWCaj55znB6TPDvrr27Yad4Co_tA7xIuYkea4qs3Et8Mf7dQYxP-u0wg4-saTt8Uo7ap3SC_SWy8CeRE-PFy4a33f1lsA-kRxz1ftku2gSLAm_fmZQVHzzQcMryZoOwXqpTT5Bh24H_5p3LiWLRAbU0YTRU29IKS51F8BPAzURDJDXZbfHdcA9rw0qaKJeNKhyYP09aK5MKNZl3y8WZ0u2hsl0ITVlezv1O51d3CFBIViW4DM0Q3Be66cxFtGRPlbMeWA6bShnioMDLvme1LLQNqgnhReCqprXJ6p_OC7nQY75XYU5SeGY5A33OWKaxFf1ApIKToGvmJSQIPACnuOsH24AZj2-8b6_Q_h0MLBJwANnhKn6zST6cg_hf71gOLQxYuAeVrJx3No5kbq_BELVxRKC7jZcj7u6ilkPHBreSbIzX1QzNcWNrfho5qa8Foczo51MUn3rKNHK-nLRV5E5U6dULz_zZVZEQlkcZz0fRGjj1ntKgqhlwihvJ0o-tyxGxSnEHKOMTcIAr4xU-TmoAiZjypaChTqr7lJR477CmFzn3P8y6bOU4_M6SM7qO3OnJ2bVZLqt6zuYhSzjd5BN7JKpsBWU5EymBuAoYI_MQy4Fn6J9vhavJceiU47WJCX5WyICfeeqSe96TcKq2kapm0gADJnRsOiugo6SZKOLzVpQ2KnajbMUpRf2TZp-Zu_izJ2qpUIwPePYPf8FSjfQq9J89neJAtl4NscEFAdiCVEfN5uyAuqrZL-EaYo8lkO6Q8u2FdnqtgAh-LREfSBbfpJ2iHPoLsmp8plehp6RIUgw1sfbgb7DVgebvGjBQG_JiFrRN226xG3iZc3JqITXHMPxe1Vd9UjkNoaHKrCrmLNHxJV-_VUVURFRz-di_YR_Hr3sJzaQxyix-_d5EI-TAgMbevqv_WS0]--></g></svg>