<?xml version="1.0" encoding="us-ascii" standalone="no"?><svg xmlns="http://www.w3.org/2000/svg" xmlns:xlink="http://www.w3.org/1999/xlink" contentStyleType="text/css" height="1005px" preserveAspectRatio="none" style="width:989px;height:1005px;background:#FFFFFF;" version="1.1" viewBox="0 0 989 1005" width="989px" zoomAndPan="magnify"><defs><filter height="1" id="b1kniicjc7bm020" width="1" x="0" y="0"><feFlood flood-color="#FFFF00" result="flood"/><feComposite in="SourceGraphic" in2="flood" operator="over"/></filter><filter height="1" id="b1kniicjc7bm021" width="1" x="0" y="0"><feFlood flood-color="#FFC0CB" result="flood"/><feComposite in="SourceGraphic" in2="flood" operator="over"/></filter><filter height="1" id="b1kniicjc7bm022" width="1" x="0" y="0"><feFlood flood-color="#00FFFF" result="flood"/><feComposite in="SourceGraphic" in2="flood" operator="over"/></filter><filter height="1" id="b1kniicjc7bm023" width="1" x="0" y="0"><feFlood flood-color="#FFA500" result="flood"/><feComposite in="SourceGraphic" in2="flood" operator="over"/></filter></defs><g><text fill="#000000" font-family="sans-serif" font-size="14" font-weight="bold" lengthAdjust="spacing" textLength="390" x="292.5" y="25.1074">Keyple - keyple-card-calypso-java-lib - 3.0.+ (2023-06-30)</text><rect fill="#DDDDDD" height="121.7266" id="_legend" rx="7.5" ry="7.5" style="stroke:#000000;stroke-width:1.0;" width="255" x="360" y="51.6211"/><text fill="#000000" font-family="sans-serif" font-size="14" lengthAdjust="spacing" text-decoration="underline" textLength="88" x="365" y="71.7285">Colors legend</text><text fill="#000000" font-family="sans-serif" font-size="14" lengthAdjust="spacing" textLength="4" x="457" y="71.7285">:</text><ellipse cx="370.5" cy="86.3633" fill="#000000" rx="2.5" ry="2.5" style="stroke:#000000;stroke-width:0.0;"/><text fill="#000000" font-family="sans-serif" font-size="14" lengthAdjust="spacing" text-decoration="underline" textLength="148" x="377" y="90.3496">External API references</text><text fill="#000000" font-family="sans-serif" font-size="14" lengthAdjust="spacing" textLength="4" x="529" y="90.3496">:</text><rect fill="#000000" height="3.5" style="stroke:#000000;stroke-width:0.0;" width="3.5" x="374" y="102.4844"/><text fill="#FF0000" filter="url(#b1kniicjc7bm020)" font-family="sans-serif" font-size="14" font-weight="bold" lengthAdjust="spacing" textLength="163" x="381" y="108.9707">keypop-reader-java-api</text><rect fill="#000000" height="3.5" style="stroke:#000000;stroke-width:0.0;" width="3.5" x="374" y="121.1055"/><text fill="#000000" filter="url(#b1kniicjc7bm021)" font-family="sans-serif" font-size="14" font-weight="bold" lengthAdjust="spacing" textLength="169" x="381" y="127.5918">keypop-calypso-java-api</text><rect fill="#000000" height="3.5" style="stroke:#000000;stroke-width:0.0;" width="3.5" x="374" y="139.7266"/><text fill="#000000" filter="url(#b1kniicjc7bm022)" font-family="sans-serif" font-size="14" font-weight="bold" lengthAdjust="spacing" textLength="170" x="381" y="146.2129">keyple-common-java-api</text><rect fill="#000000" height="3.5" style="stroke:#000000;stroke-width:0.0;" width="3.5" x="374" y="158.3477"/><text fill="#FF0000" filter="url(#b1kniicjc7bm023)" font-family="sans-serif" font-size="14" font-weight="bold" lengthAdjust="spacing" textLength="229" x="381" y="164.834">keyple-service-resource-java-lib</text><!--cluster calypso--><g id="cluster_calypso"><path d="M8.5,192.3613 L230.5,192.3613 A3.75,3.75 0 0 1 233,194.8613 L240,216.9824 L979.5,216.9824 A2.5,2.5 0 0 1 982,219.4824 L982,995.8613 A2.5,2.5 0 0 1 979.5,998.3613 L8.5,998.3613 A2.5,2.5 0 0 1 6,995.8613 L6,194.8613 A2.5,2.5 0 0 1 8.5,192.3613 " fill="#F8F9F9" style="stroke:#000000;stroke-width:1.5;"/><line style="stroke:#000000;stroke-width:1.5;" x1="6" x2="240" y1="216.9824" y2="216.9824"/><text fill="#000000" font-family="sans-serif" font-size="14" font-weight="bold" lengthAdjust="spacing" textLength="221" x="10" y="209.4688">org.eclipse.keyple.card.calypso</text></g><!--class CalypsoExtensionService--><g id="elem_CalypsoExtensionService"><rect codeLine="63" fill="#E9F7EF" height="607.2539" id="CalypsoExtensionService" rx="2.5" ry="2.5" style="stroke:#27AE60;stroke-width:2.0;" width="943" x="22.5" y="229.3613"/><ellipse cx="387.75" cy="252.9824" fill="#ADD1B2" rx="11" ry="11" style="stroke:#181818;stroke-width:1.0;"/><path d="M390.5156,248.8574 Q390.6719,248.6387 390.8594,248.5293 Q391.0469,248.4199 391.2656,248.4199 Q391.6406,248.4199 391.875,248.6855 Q392.1094,248.9355 392.1094,249.5449 L392.1094,250.998 Q392.1094,251.6074 391.875,251.873 Q391.6406,252.1387 391.2656,252.1387 Q390.9219,252.1387 390.7188,251.9355 Q390.5156,251.748 390.4063,251.2324 Q390.3594,250.873 390.1719,250.6855 Q389.8438,250.3105 389.2344,250.0918 Q388.625,249.873 388,249.873 Q387.2344,249.873 386.5938,250.2012 Q385.9688,250.5293 385.4688,251.2793 Q384.9844,252.0293 384.9844,253.0605 L384.9844,254.1543 Q384.9844,255.3887 385.875,256.2168 Q386.7656,257.0293 388.3594,257.0293 Q389.2969,257.0293 389.9531,256.7793 Q390.3438,256.623 390.7656,256.1855 Q391.0313,255.9199 391.1719,255.8418 Q391.3281,255.7637 391.5313,255.7637 Q391.8594,255.7637 392.1094,256.0293 Q392.375,256.2793 392.375,256.623 Q392.375,256.9668 392.0313,257.373 Q391.5313,257.9512 390.7344,258.2793 Q389.6563,258.7324 388.3594,258.7324 Q386.8438,258.7324 385.6406,258.1074 Q384.6563,257.6074 383.9688,256.5449 Q383.2813,255.4668 383.2813,254.1855 L383.2813,253.0293 Q383.2813,251.7012 383.8906,250.5605 Q384.5156,249.4043 385.6094,248.7949 Q386.7031,248.1699 387.9375,248.1699 Q388.6719,248.1699 389.3125,248.3418 Q389.9688,248.498 390.5156,248.8574 Z " fill="#000000"/><ellipse cx="413.25" cy="252.4824" fill="#84BE84" rx="3" ry="3" style="stroke:#038048;stroke-width:1.0;"/><text fill="#000000" font-family="sans-serif" font-size="14" lengthAdjust="spacing" textLength="16" x="432.25" y="249.4688">&lt;&lt;</text><text fill="#000000" filter="url(#b1kniicjc7bm022)" font-family="sans-serif" font-size="14" lengthAdjust="spacing" textLength="135" x="448.25" y="249.4688">KeypleCardExtension</text><text fill="#000000" font-family="sans-serif" font-size="14" lengthAdjust="spacing" textLength="16" x="583.25" y="249.4688">&gt;&gt;</text><text fill="#000000" font-family="sans-serif" font-size="14" font-weight="bold" lengthAdjust="spacing" textLength="30" x="419.25" y="268.0898">final</text><text fill="#000000" font-family="sans-serif" font-size="14" lengthAdjust="spacing" textLength="159" x="453.25" y="268.0898">CalypsoExtensionService</text><line style="stroke:#27AE60;stroke-width:2.0;" x1="23.5" x2="964.5" y1="276.6035" y2="276.6035"/><line style="stroke:#27AE60;stroke-width:1.0;" x1="23.5" x2="964.5" y1="284.6035" y2="284.6035"/><ellipse cx="33.5" cy="299.4141" fill="#84BE84" rx="3" ry="3" style="stroke:#038048;stroke-width:1.0;"/><text fill="#000000" font-family="sans-serif" font-size="14" lengthAdjust="spacing" text-decoration="underline" textLength="250" x="42.5" y="303.7109">CalypsoExtensionService getInstance ()</text><text fill="#000000" font-family="sans-serif" font-size="14" lengthAdjust="spacing" textLength="4" x="42.5" y="322.332">&#160;</text><ellipse cx="33.5" cy="336.6563" fill="#84BE84" rx="3" ry="3" style="stroke:#038048;stroke-width:1.0;"/><text fill="#000000" font-family="sans-serif" font-size="14" lengthAdjust="spacing" textLength="222" x="42.5" y="340.9531">ContextSetting getContextSetting ()</text><text fill="#000000" font-family="sans-serif" font-size="14" lengthAdjust="spacing" textLength="4" x="42.5" y="359.5742">&#160;</text><ellipse cx="33.5" cy="373.8984" fill="#84BE84" rx="3" ry="3" style="stroke:#038048;stroke-width:1.0;"/><text fill="#0000FF" filter="url(#b1kniicjc7bm021)" font-family="sans-serif" font-size="14" lengthAdjust="spacing" textLength="150" x="42.5" y="378.1953">CalypsoCardApiFactory</text><text fill="#0000FF" font-family="sans-serif" font-size="14" lengthAdjust="spacing" textLength="204" x="196.5" y="378.1953">createCalypsoCardApiFactory ()</text><text fill="#000000" font-family="sans-serif" font-size="14" lengthAdjust="spacing" textLength="4" x="42.5" y="396.8164">&#160;</text><ellipse cx="33.5" cy="411.1406" fill="#84BE84" rx="3" ry="3" style="stroke:#038048;stroke-width:1.0;"/><text fill="#FF0000" filter="url(#b1kniicjc7bm021)" font-family="sans-serif" font-size="14" lengthAdjust="spacing" textLength="139" x="42.5" y="415.4375">SearchCommandData</text><text fill="#FF0000" font-family="sans-serif" font-size="14" lengthAdjust="spacing" textLength="193" x="185.5" y="415.4375">createSearchCommandData ()</text><ellipse cx="33.5" cy="429.7617" fill="#84BE84" rx="3" ry="3" style="stroke:#038048;stroke-width:1.0;"/><text fill="#FF0000" filter="url(#b1kniicjc7bm021)" font-family="sans-serif" font-size="14" lengthAdjust="spacing" textLength="205" x="42.5" y="434.0586">BasicSignatureComputationData</text><text fill="#FF0000" font-family="sans-serif" font-size="14" lengthAdjust="spacing" textLength="259" x="251.5" y="434.0586">createBasicSignatureComputationData ()</text><ellipse cx="33.5" cy="448.3828" fill="#84BE84" rx="3" ry="3" style="stroke:#038048;stroke-width:1.0;"/><text fill="#FF0000" filter="url(#b1kniicjc7bm021)" font-family="sans-serif" font-size="14" lengthAdjust="spacing" textLength="235" x="42.5" y="452.6797">TraceableSignatureComputationData</text><text fill="#FF0000" font-family="sans-serif" font-size="14" lengthAdjust="spacing" textLength="289" x="281.5" y="452.6797">createTraceableSignatureComputationData ()</text><ellipse cx="33.5" cy="467.0039" fill="#84BE84" rx="3" ry="3" style="stroke:#038048;stroke-width:1.0;"/><text fill="#FF0000" filter="url(#b1kniicjc7bm021)" font-family="sans-serif" font-size="14" lengthAdjust="spacing" textLength="195" x="42.5" y="471.3008">BasicSignatureVerificationData</text><text fill="#FF0000" font-family="sans-serif" font-size="14" lengthAdjust="spacing" textLength="249" x="241.5" y="471.3008">createBasicSignatureVerificationData ()</text><ellipse cx="33.5" cy="485.625" fill="#84BE84" rx="3" ry="3" style="stroke:#038048;stroke-width:1.0;"/><text fill="#FF0000" filter="url(#b1kniicjc7bm021)" font-family="sans-serif" font-size="14" lengthAdjust="spacing" textLength="225" x="42.5" y="489.9219">TraceableSignatureVerificationData</text><text fill="#FF0000" font-family="sans-serif" font-size="14" lengthAdjust="spacing" textLength="279" x="271.5" y="489.9219">createTraceableSignatureVerificationData ()</text><text fill="#000000" font-family="sans-serif" font-size="14" lengthAdjust="spacing" textLength="4" x="42.5" y="508.543">&#160;</text><ellipse cx="33.5" cy="522.8672" fill="#84BE84" rx="3" ry="3" style="stroke:#038048;stroke-width:1.0;"/><text fill="#FF0000" filter="url(#b1kniicjc7bm021)" font-family="sans-serif" font-size="14" lengthAdjust="spacing" textLength="140" x="42.5" y="527.1641">CalypsoCardSelection</text><text fill="#FF0000" font-family="sans-serif" font-size="14" lengthAdjust="spacing" textLength="143" x="186.5" y="527.1641">createCardSelection ()</text><ellipse cx="33.5" cy="541.4883" fill="#84BE84" rx="3" ry="3" style="stroke:#038048;stroke-width:1.0;"/><text fill="#FF0000" filter="url(#b1kniicjc7bm021)" font-family="sans-serif" font-size="14" lengthAdjust="spacing" textLength="137" x="42.5" y="545.7852">CalypsoSamSelection</text><text fill="#FF0000" font-family="sans-serif" font-size="14" lengthAdjust="spacing" textLength="140" x="183.5" y="545.7852">createSamSelection ()</text><text fill="#000000" font-family="sans-serif" font-size="14" lengthAdjust="spacing" textLength="4" x="42.5" y="564.4063">&#160;</text><ellipse cx="33.5" cy="578.7305" fill="#84BE84" rx="3" ry="3" style="stroke:#038048;stroke-width:1.0;"/><text fill="#FF0000" filter="url(#b1kniicjc7bm023)" font-family="sans-serif" font-size="14" lengthAdjust="spacing" textLength="193" x="42.5" y="583.0273">CardResourceProfileExtension</text><text fill="#FF0000" font-family="sans-serif" font-size="14" lengthAdjust="spacing" textLength="239" x="239.5" y="583.0273">createSamResourceProfileExtension (</text><text fill="#FF0000" filter="url(#b1kniicjc7bm021)" font-family="sans-serif" font-size="14" lengthAdjust="spacing" textLength="137" x="478.5" y="583.0273">CalypsoSamSelection</text><text fill="#FF0000" font-family="sans-serif" font-size="14" lengthAdjust="spacing" textLength="139" x="619.5" y="583.0273">calypsoSamSelection)</text><text fill="#000000" font-family="sans-serif" font-size="14" lengthAdjust="spacing" textLength="4" x="42.5" y="601.6484">&#160;</text><ellipse cx="33.5" cy="615.9727" fill="#84BE84" rx="3" ry="3" style="stroke:#038048;stroke-width:1.0;"/><text fill="#FF0000" filter="url(#b1kniicjc7bm021)" font-family="sans-serif" font-size="14" lengthAdjust="spacing" textLength="126" x="42.5" y="620.2695">CardSecuritySetting</text><text fill="#FF0000" font-family="sans-serif" font-size="14" lengthAdjust="spacing" textLength="180" x="172.5" y="620.2695">createCardSecuritySetting ()</text><ellipse cx="33.5" cy="634.5938" fill="#84BE84" rx="3" ry="3" style="stroke:#038048;stroke-width:1.0;"/><text fill="#FF0000" filter="url(#b1kniicjc7bm021)" font-family="sans-serif" font-size="14" lengthAdjust="spacing" textLength="162" x="42.5" y="638.8906">CardTransactionManager</text><text fill="#FF0000" font-family="sans-serif" font-size="14" lengthAdjust="spacing" textLength="155" x="208.5" y="638.8906">createCardTransaction (</text><text fill="#FF0000" filter="url(#b1kniicjc7bm020)" font-family="sans-serif" font-size="14" lengthAdjust="spacing" textLength="78" x="363.5" y="638.8906">CardReader</text><text fill="#FF0000" font-family="sans-serif" font-size="14" lengthAdjust="spacing" textLength="79" x="445.5" y="638.8906">cardReader,</text><text fill="#FF0000" filter="url(#b1kniicjc7bm021)" font-family="sans-serif" font-size="14" lengthAdjust="spacing" textLength="82" x="528.5" y="638.8906">CalypsoCard</text><text fill="#FF0000" font-family="sans-serif" font-size="14" lengthAdjust="spacing" textLength="83" x="614.5" y="638.8906">calypsoCard,</text><text fill="#FF0000" filter="url(#b1kniicjc7bm021)" font-family="sans-serif" font-size="14" lengthAdjust="spacing" textLength="126" x="701.5" y="638.8906">CardSecuritySetting</text><text fill="#FF0000" font-family="sans-serif" font-size="14" lengthAdjust="spacing" textLength="128" x="831.5" y="638.8906">cardSecuritySetting)</text><ellipse cx="33.5" cy="653.2148" fill="#84BE84" rx="3" ry="3" style="stroke:#038048;stroke-width:1.0;"/><text fill="#FF0000" filter="url(#b1kniicjc7bm021)" font-family="sans-serif" font-size="14" lengthAdjust="spacing" textLength="162" x="42.5" y="657.5117">CardTransactionManager</text><text fill="#FF0000" font-family="sans-serif" font-size="14" lengthAdjust="spacing" textLength="254" x="208.5" y="657.5117">createCardTransactionWithoutSecurity (</text><text fill="#FF0000" filter="url(#b1kniicjc7bm020)" font-family="sans-serif" font-size="14" lengthAdjust="spacing" textLength="78" x="462.5" y="657.5117">CardReader</text><text fill="#FF0000" font-family="sans-serif" font-size="14" lengthAdjust="spacing" textLength="79" x="544.5" y="657.5117">cardReader,</text><text fill="#FF0000" filter="url(#b1kniicjc7bm021)" font-family="sans-serif" font-size="14" lengthAdjust="spacing" textLength="82" x="627.5" y="657.5117">CalypsoCard</text><text fill="#FF0000" font-family="sans-serif" font-size="14" lengthAdjust="spacing" textLength="84" x="713.5" y="657.5117">calypsoCard)</text><text fill="#000000" font-family="sans-serif" font-size="14" lengthAdjust="spacing" textLength="4" x="42.5" y="676.1328">&#160;</text><ellipse cx="33.5" cy="690.457" fill="#84BE84" rx="3" ry="3" style="stroke:#038048;stroke-width:1.0;"/><text fill="#FF0000" filter="url(#b1kniicjc7bm021)" font-family="sans-serif" font-size="14" lengthAdjust="spacing" text-decoration="line-through" textLength="123" x="42.5" y="694.7539">SamSecuritySetting</text><text fill="#FF0000" font-family="sans-serif" font-size="14" lengthAdjust="spacing" text-decoration="line-through" textLength="177" x="169.5" y="694.7539">createSamSecuritySetting ()</text><ellipse cx="33.5" cy="709.0781" fill="#84BE84" rx="3" ry="3" style="stroke:#038048;stroke-width:1.0;"/><text fill="#FF0000" filter="url(#b1kniicjc7bm021)" font-family="sans-serif" font-size="14" lengthAdjust="spacing" text-decoration="line-through" textLength="159" x="42.5" y="713.375">SamTransactionManager</text><text fill="#FF0000" font-family="sans-serif" font-size="14" lengthAdjust="spacing" text-decoration="line-through" textLength="152" x="205.5" y="713.375">createSamTransaction (</text><text fill="#FF0000" filter="url(#b1kniicjc7bm020)" font-family="sans-serif" font-size="14" lengthAdjust="spacing" text-decoration="line-through" textLength="78" x="357.5" y="713.375">CardReader</text><text fill="#FF0000" font-family="sans-serif" font-size="14" lengthAdjust="spacing" text-decoration="line-through" textLength="77" x="439.5" y="713.375">samReader,</text><text fill="#FF0000" filter="url(#b1kniicjc7bm021)" font-family="sans-serif" font-size="14" lengthAdjust="spacing" text-decoration="line-through" textLength="79" x="520.5" y="713.375">CalypsoSam</text><text fill="#FF0000" font-family="sans-serif" font-size="14" lengthAdjust="spacing" text-decoration="line-through" textLength="80" x="603.5" y="713.375">calypsoSam,</text><text fill="#FF0000" filter="url(#b1kniicjc7bm021)" font-family="sans-serif" font-size="14" lengthAdjust="spacing" text-decoration="line-through" textLength="123" x="687.5" y="713.375">SamSecuritySetting</text><text fill="#FF0000" font-family="sans-serif" font-size="14" lengthAdjust="spacing" text-decoration="line-through" textLength="126" x="814.5" y="713.375">samSecuritySetting)</text><ellipse cx="33.5" cy="727.6992" fill="#84BE84" rx="3" ry="3" style="stroke:#038048;stroke-width:1.0;"/><text fill="#FF0000" filter="url(#b1kniicjc7bm021)" font-family="sans-serif" font-size="14" lengthAdjust="spacing" text-decoration="line-through" textLength="159" x="42.5" y="731.9961">SamTransactionManager</text><text fill="#FF0000" font-family="sans-serif" font-size="14" lengthAdjust="spacing" text-decoration="line-through" textLength="251" x="205.5" y="731.9961">createSamTransactionWithoutSecurity (</text><text fill="#FF0000" filter="url(#b1kniicjc7bm020)" font-family="sans-serif" font-size="14" lengthAdjust="spacing" text-decoration="line-through" textLength="78" x="456.5" y="731.9961">CardReader</text><text fill="#FF0000" font-family="sans-serif" font-size="14" lengthAdjust="spacing" text-decoration="line-through" textLength="77" x="538.5" y="731.9961">samReader,</text><text fill="#FF0000" filter="url(#b1kniicjc7bm021)" font-family="sans-serif" font-size="14" lengthAdjust="spacing" text-decoration="line-through" textLength="79" x="619.5" y="731.9961">CalypsoSam</text><text fill="#FF0000" font-family="sans-serif" font-size="14" lengthAdjust="spacing" text-decoration="line-through" textLength="81" x="702.5" y="731.9961">calypsoSam)</text><text fill="#000000" font-family="sans-serif" font-size="14" lengthAdjust="spacing" textLength="4" x="42.5" y="750.6172">&#160;</text><ellipse cx="33.5" cy="787.5625" fill="#84BE84" rx="3" ry="3" style="stroke:#038048;stroke-width:1.0;"/><text fill="#000000" font-family="sans-serif" font-size="14" lengthAdjust="spacing" textLength="199" x="42.5" y="791.8594">String getCommonApiVersion ()</text><ellipse cx="33.5" cy="806.1836" fill="#84BE84" rx="3" ry="3" style="stroke:#038048;stroke-width:1.0;"/><text fill="#000000" font-family="sans-serif" font-size="14" lengthAdjust="spacing" textLength="190" x="42.5" y="810.4805">String getReaderApiVersion ()</text><ellipse cx="33.5" cy="824.8047" fill="#84BE84" rx="3" ry="3" style="stroke:#038048;stroke-width:1.0;"/><text fill="#000000" font-family="sans-serif" font-size="14" lengthAdjust="spacing" textLength="174" x="42.5" y="829.1016">String getCardApiVersion ()</text><line style="stroke:#27AE60;stroke-width:1.0;" x1="23.5" x2="418.5" y1="767.4414" y2="767.4414"/><text fill="#000000" font-family="sans-serif" font-size="14" font-weight="bold" lengthAdjust="spacing" textLength="151" x="418.5" y="772.7383">KeypleCardExtension</text><line style="stroke:#27AE60;stroke-width:1.0;" x1="569.5" x2="964.5" y1="767.4414" y2="767.4414"/></g><!--class ContextSetting--><g id="elem_ContextSetting"><rect codeLine="95" fill="#FEFECE" height="66.6211" id="ContextSetting" rx="2.5" ry="2.5" style="stroke:#D4AC0D;stroke-width:2.0;" width="467" x="260.5" y="915.3613"/><ellipse cx="438.25" cy="931.3613" fill="#B4A7E5" rx="11" ry="11" style="stroke:#181818;stroke-width:1.0;"/><path d="M439.2031,928.002 L439.2031,934.6582 L440.9219,934.6582 Q441.5313,934.6582 441.7969,934.8926 Q442.0625,935.127 442.0625,935.5176 Q442.0625,935.8926 441.7969,936.127 Q441.5313,936.3613 440.9219,936.3613 L435.7813,936.3613 Q435.1719,936.3613 434.9063,936.127 Q434.6406,935.8926 434.6406,935.502 Q434.6406,935.127 434.9063,934.8926 Q435.1719,934.6582 435.7813,934.6582 L437.5,934.6582 L437.5,928.002 L435.7813,928.002 Q435.1719,928.002 434.9063,927.7676 Q434.6406,927.5332 434.6406,927.1426 Q434.6406,926.7676 434.9063,926.5332 Q435.1719,926.2988 435.7813,926.2988 L440.9219,926.2988 Q441.5313,926.2988 441.7969,926.5332 Q442.0625,926.7676 442.0625,927.1426 Q442.0625,927.5332 441.7969,927.7676 Q441.5313,928.002 440.9219,928.002 L439.2031,928.002 Z " fill="#000000"/><ellipse cx="463.75" cy="930.8613" fill="#84BE84" rx="3" ry="3" style="stroke:#038048;stroke-width:1.0;"/><text fill="#000000" font-family="sans-serif" font-size="14" font-style="italic" lengthAdjust="spacing" textLength="92" x="469.75" y="937.1582">ContextSetting</text><line style="stroke:#D4AC0D;stroke-width:2.0;" x1="261.5" x2="726.5" y1="947.3613" y2="947.3613"/><line style="stroke:#D4AC0D;stroke-width:2.0;" x1="261.5" x2="726.5" y1="955.3613" y2="955.3613"/><text fill="#000000" font-family="sans-serif" font-size="14" lengthAdjust="spacing" textLength="455" x="266.5" y="974.4688">ContextSetting setContactReaderPayloadCapacity (int payloadCapacity)</text></g><!--link CalypsoExtensionService to ContextSetting--><g id="link_CalypsoExtensionService_ContextSetting"><path codeLine="102" d="M494,836.3723 C494,864.8953 494,890.3193 494,909.6593 " fill="none" id="CalypsoExtensionService-to-ContextSetting" style="stroke:#27AE60;stroke-width:2.0;stroke-dasharray:7.0,7.0;"/><polygon fill="#27AE60" points="494,914.9507,498,905.9507,494,909.9507,490,905.9507,494,914.9507" style="stroke:#27AE60;stroke-width:2.0;"/><polygon fill="#000000" points="499,881.0068,501.9389,871.9618,496.0611,871.9618,499,881.0068" style="stroke:#000000;stroke-width:1.0;"/><text fill="#000000" font-family="sans-serif" font-size="13" lengthAdjust="spacing" textLength="21" x="508" y="881.3896">use</text></g><!--SRC=[jLZRRjiu47ttLt2JXxREsabj9su2ru0iKTsWRHhKQHS15WWOYRQvaKc1f98QGVvzXvHaNNpj0ib38CySdiCPZePZQwOZsa3mzvakueYY5dgm3ws0o13-HOjOYTQ_v96q8dOFxcxxf7s4tdPEEjtMoLchU_AkGNc8j2Lgl44VFwARl_1N30_mqHL9H1Ef45CgeGg555sWcTQnkZW-dkbv58X8o424LBK3CJ-Uo6DDxYDAabO8UqXNhp71es9JteeZeeyRVuHqmZX5xjsdx_ZsFV8_-EV-UStSGNx7x_gzchcBy2dkupgwXxo-D_AyclaKkOxhUvsQ-GoDFBVhzalcBvTNdr6tT_x16vMiFyOOTVeEFZinkMgrq5Wl8iYBdX6DGi7VQFGav0DwOdg6E7r2ZrGg9ZWI4mInSftC8rZMK0-CnqIIELAQIYhq8gREICYGIjTa51qwvvxh-Mk1bnNWgEVqyUbQe5jbzBpteyvQ8Au0yUYy2z8sFdpbcVsMLhaHKIh5tynOyC2fKgXCwqWfdiekOBgbKIIULbX8y32L8k5XfknZ7xjulLW6yNgEU-81vNSQxk0R32GDXqEWzR27tIsqIoJkzw0E6ZC6XPuRYpI1wdKYuUtQAHnRcDNkOTVlRzKkm1zmh-TukVpINjd1VPJirZSW6y_8F_L7MzLpQ5RhcNPchIX_afJodT9JWxBQvtuV-rkrbzZidSh4StDTVR6F-C9gEr17U9UsXNRSBZujIo-gocbFTBzTtU2h6ziL8pgrBLF4jlFUtLb6XLBxtHswiFOcUF0l8E8aGixr9P9q0gmyeAh0DD70jj0BKsk3UuZdOc7VbM6pQJgvY5kI4jXrsiD9p9hDmR713PS4TbNC-4EnfjBuDoyA5eHdYyoL8UPpmRUigUzKICAdj21GL3woWCAEbKWaFEJtJa5b4fVcgT68mKAc51q8EMtJ86AneksKgcskhtOMnG4Y2cNFwDdkvYWmvuaE1eDI8EaLwC9AatPk-cucEnp-mvjDwE4aWZZSb6e96gVRjZ8RVAMYJ3TW_g0lvez7pqeJpOANZGHJgYyvWE3uqTjtZMAbAxYcl_IOQiturE1gbWewEmFxUfOEFbCriJinyqcWXLnamQC0AaZJjP2rvCK1M-un9JAOkL0SX8SUqQJAk-8sd3ieHqInO0m30D69fB0sJapw15-btmhTG-f6ae2Q-MC_kPtmtuxk9vLimeAzmgjZ_rTysmLtu_UfYL8nZMb40rsyQyjoAxdsY2DZ79Fv1iAofyotXJZhJsOhtxEMT2t5X4MqtY0AZKr0z7RFpQwwzacdILQGIAONsMk_BfiLm5uvbI6SDrV4xkChuT1kvIfp2PE7cLr2QUhC_LF4brl-HEiBefO9Owf1DmUxwdgD8F-6wLmaEbTwdPWtdRggz5PJ9blEVTM_yTZhlBjoKeNip84ohyQc503NQlrNW9i3LIkULmdmTy_yz-Cj7JXySMesrumZC7oKXuQnbiihtunUS2__pBulba-vWAKxsWdBxlWQw2MTd1WC5t82bm2gpHd5O5Dpg7GaWJoc-jTa4GaIkWG6E9jAe4HnrPXBlfZvsL5A1CnUCAhHs3GXjTl3kl9X-etx0YMAec4sYdznRh_zI2Tn-tbyS_ib_RaY7oZpMV4m_q7X-QNn9dUgcEMEZd7y1m00]--></g></svg>